<mxfile host="app.diagrams.net" modified="2023-11-02T21:10:23.716Z" agent="Mozilla/5.0 (Macintosh; Intel Mac OS X 10_15_7) AppleWebKit/605.1.15 (KHTML, like Gecko) Version/16.5 Safari/605.1.15" etag="xjpaSr1t2rVGPcUFZrH6" version="22.0.8" type="github">
  <diagram name="PÃ¡gina-1" id="yKmaqPDa1m_XpfC77KCf">
    <mxGraphModel dx="1060" dy="692" grid="1" gridSize="10" guides="1" tooltips="1" connect="1" arrows="1" fold="1" page="1" pageScale="1" pageWidth="827" pageHeight="1169" math="0" shadow="0">
      <root>
        <mxCell id="0" />
        <mxCell id="1" parent="0" />
        <mxCell id="soPhUvelNPUdPLwwvqqN-1" value="RDS" style="outlineConnect=0;dashed=0;verticalLabelPosition=bottom;verticalAlign=top;align=center;html=1;shape=mxgraph.aws3.rds;fillColor=#2E73B8;gradientColor=none;" vertex="1" parent="1">
          <mxGeometry x="650" y="292" width="72" height="81" as="geometry" />
        </mxCell>
        <mxCell id="soPhUvelNPUdPLwwvqqN-2" value="Lambda" style="outlineConnect=0;dashed=0;verticalLabelPosition=bottom;verticalAlign=top;align=center;html=1;shape=mxgraph.aws3.lambda_function;fillColor=#F58534;gradientColor=none;" vertex="1" parent="1">
          <mxGeometry x="532" y="289.75" width="69" height="72" as="geometry" />
        </mxCell>
        <mxCell id="soPhUvelNPUdPLwwvqqN-5" value="API Gateway" style="outlineConnect=0;dashed=0;verticalLabelPosition=bottom;verticalAlign=top;align=center;html=1;shape=mxgraph.aws3.api_gateway;fillColor=#D9A741;gradientColor=none;" vertex="1" parent="1">
          <mxGeometry x="382" y="280" width="76.5" height="93" as="geometry" />
        </mxCell>
        <mxCell id="soPhUvelNPUdPLwwvqqN-7" value="Route53" style="outlineConnect=0;dashed=0;verticalLabelPosition=bottom;verticalAlign=top;align=center;html=1;shape=mxgraph.aws3.route_53;fillColor=#F58536;gradientColor=none;" vertex="1" parent="1">
          <mxGeometry x="230" y="289.75" width="70.5" height="85.5" as="geometry" />
        </mxCell>
        <mxCell id="soPhUvelNPUdPLwwvqqN-8" value="Users" style="outlineConnect=0;dashed=0;verticalLabelPosition=bottom;verticalAlign=top;align=center;html=1;shape=mxgraph.aws3.users;fillColor=#D2D3D3;gradientColor=none;" vertex="1" parent="1">
          <mxGeometry x="50" y="301" width="66" height="63" as="geometry" />
        </mxCell>
        <mxCell id="soPhUvelNPUdPLwwvqqN-10" value="" style="rounded=1;arcSize=10;dashed=0;fillColor=none;gradientColor=none;strokeWidth=2;" vertex="1" parent="1">
          <mxGeometry x="165.25" y="235.75" width="634.75" height="234.25" as="geometry" />
        </mxCell>
        <mxCell id="soPhUvelNPUdPLwwvqqN-11" value="" style="dashed=0;html=1;shape=mxgraph.aws3.cloud;fillColor=#F58536;gradientColor=none;dashed=0;" vertex="1" parent="1">
          <mxGeometry x="185.25" y="215.75" width="52" height="36" as="geometry" />
        </mxCell>
      </root>
    </mxGraphModel>
  </diagram>
</mxfile>
